<?xml version="1.0" encoding="UTF-8" standalone="no"?>
<!DOCTYPE svg PUBLIC "-//W3C//DTD SVG 1.1//EN"
 "http://www.w3.org/Graphics/SVG/1.1/DTD/svg11.dtd">
<!-- Generated by graphviz version 14.1.5 (20260411.2331)
 -->
<!-- Pages: 1 -->
<svg width="458pt" height="170pt"
 viewBox="0.00 0.00 458.00 170.00" xmlns="http://www.w3.org/2000/svg" xmlns:xlink="http://www.w3.org/1999/xlink">
<g id="graph0" class="graph" transform="scale(1 1) rotate(0) translate(4 166.1)">
<polygon fill="white" stroke="none" points="-4,4 -4,-166.1 454,-166.1 454,4 -4,4"/>
<g id="clust1" class="cluster">
<title>cluster_plain</title>
<polygon fill="lightblue" stroke="blue" points="8,-21.93 8,-104.18 134,-104.18 134,-21.93 8,-21.93"/>
<text xml:space="preserve" text-anchor="middle" x="71" y="-88.78" font-family="Arial" font-size="12.00">Plain String Patterns</text>
</g>
<g id="clust2" class="cluster">
<title>cluster_hex</title>
<polygon fill="lightyellow" stroke="orange" points="142,-8 142,-118.1 334,-118.1 334,-8 142,-8"/>
<text xml:space="preserve" text-anchor="middle" x="238" y="-102.7" font-family="Arial" font-size="12.00">Hex Patterns</text>
</g>
<g id="clust3" class="cluster">
<title>cluster_regex</title>
<polygon fill="lightgreen" stroke="green" points="342,-12.81 342,-113.29 442,-113.29 442,-12.81 342,-12.81"/>
<text xml:space="preserve" text-anchor="middle" x="392" y="-97.89" font-family="Arial" font-size="12.00">Regex Patterns</text>
</g>
<!-- pattern_1 -->
<g id="node1" class="node">
<title>pattern_1</title>
<path fill="lightcyan" stroke="black" d="M114.25,-73.93C114.25,-73.93 81.75,-73.93 81.75,-73.93 75.75,-73.93 69.75,-67.93 69.75,-61.93 69.75,-61.93 69.75,-41.93 69.75,-41.93 69.75,-35.93 75.75,-29.93 81.75,-29.93 81.75,-29.93 114.25,-29.93 114.25,-29.93 120.25,-29.93 126.25,-35.93 126.25,-41.93 126.25,-41.93 126.25,-61.93 126.25,-61.93 126.25,-67.93 120.25,-73.93 114.25,-73.93"/>
<text xml:space="preserve" text-anchor="middle" x="98" y="-60.43" font-family="Arial" font-size="10.00">$a</text>
<text xml:space="preserve" text-anchor="middle" x="98" y="-48.43" font-family="Arial" font-size="10.00">&quot;abc&quot;</text>
<text xml:space="preserve" text-anchor="middle" x="98" y="-36.43" font-family="Arial" font-size="10.00">Length: 3</text>
</g>
<!-- pattern_2 -->
<g id="node2" class="node">
<title>pattern_2</title>
<polygon fill="yellow" stroke="black" points="325.77,-51.93 281.89,-87.85 194.11,-87.85 150.23,-51.93 194.11,-16 281.89,-16 325.77,-51.93"/>
<text xml:space="preserve" text-anchor="middle" x="238" y="-60.43" font-family="Arial" font-size="10.00">$b</text>
<text xml:space="preserve" text-anchor="middle" x="238" y="-48.43" font-family="Arial" font-size="10.00">Tokens: 4</text>
<text xml:space="preserve" text-anchor="middle" x="238" y="-36.43" font-family="Arial" font-size="10.00">Wildcards: 1 (25.0%)</text>
</g>
<!-- pattern_3 -->
<g id="node3" class="node">
<title>pattern_3</title>
<ellipse fill="lightgreen" stroke="black" cx="392" cy="-51.93" rx="41.54" ry="31.11"/>
<text xml:space="preserve" text-anchor="middle" x="392" y="-60.43" font-family="Arial" font-size="10.00">$c</text>
<text xml:space="preserve" text-anchor="middle" x="392" y="-48.43" font-family="Arial" font-size="10.00">/ab+c/</text>
<text xml:space="preserve" text-anchor="middle" x="392" y="-36.43" font-family="Arial" font-size="10.00">Groups: 0</text>
</g>
<!-- rule_sample_more -->
<g id="node4" class="node">
<title>rule_sample_more</title>
<polygon fill="lightgray" stroke="black" points="238,-162.1 152.32,-144.1 238,-126.1 323.68,-144.1 238,-162.1"/>
<text xml:space="preserve" text-anchor="middle" x="238" y="-140.6" font-family="Arial" font-size="10.00">Rule: sample_more</text>
</g>
<!-- rule_sample_more&#45;&gt;pattern_1 -->
<g id="edge1" class="edge">
<title>rule_sample_more&#45;&gt;pattern_1</title>
<path fill="none" stroke="gray" stroke-dasharray="1,5" d="M182.77,-137.21C167.2,-133.54 150.99,-127.63 138,-118.1 126.41,-109.6 117.46,-96.63 111,-84.49"/>
<polygon fill="gray" stroke="gray" points="114.16,-82.98 106.63,-75.53 107.87,-86.06 114.16,-82.98"/>
</g>
<!-- rule_sample_more&#45;&gt;pattern_2 -->
<g id="edge2" class="edge">
<title>rule_sample_more&#45;&gt;pattern_2</title>
<path fill="none" stroke="gray" stroke-dasharray="1,5" d="M238,-125.71C238,-118.15 238,-108.88 238,-99.52"/>
<polygon fill="gray" stroke="gray" points="241.5,-99.69 238,-89.69 234.5,-99.69 241.5,-99.69"/>
</g>
<!-- rule_sample_more&#45;&gt;pattern_3 -->
<g id="edge3" class="edge">
<title>rule_sample_more&#45;&gt;pattern_3</title>
<path fill="none" stroke="gray" stroke-dasharray="1,5" d="M290.09,-136.56C306.32,-132.88 323.69,-127.11 338,-118.1 349.54,-110.83 359.81,-100.27 368.22,-89.75"/>
<polygon fill="gray" stroke="gray" points="370.97,-91.91 374.2,-81.82 365.38,-87.7 370.97,-91.91"/>
</g>
</g>
</svg>
