<?xml version="1.0" encoding="UTF-8" standalone="no"?>
<!DOCTYPE svg PUBLIC "-//W3C//DTD SVG 1.1//EN"
 "http://www.w3.org/Graphics/SVG/1.1/DTD/svg11.dtd">
<!-- Generated by graphviz version 14.1.5 (20260411.2331)
 -->
<!-- Pages: 1 -->
<svg width="269pt" height="212pt"
 viewBox="0.00 0.00 269.00 212.00" xmlns="http://www.w3.org/2000/svg" xmlns:xlink="http://www.w3.org/1999/xlink">
<g id="graph0" class="graph" transform="scale(1 1) rotate(0) translate(4 207.5)">
<polygon fill="white" stroke="none" points="-4,4 -4,-207.5 264.75,-207.5 264.75,4 -4,4"/>
<!-- dep_target -->
<g id="node1" class="node">
<title>dep_target</title>
<path fill="lightcoral" stroke="black" d="M248.75,-203.5C248.75,-203.5 199.75,-203.5 199.75,-203.5 193.75,-203.5 187.75,-197.5 187.75,-191.5 187.75,-191.5 187.75,-174.5 187.75,-174.5 187.75,-168.5 193.75,-162.5 199.75,-162.5 199.75,-162.5 248.75,-162.5 248.75,-162.5 254.75,-162.5 260.75,-168.5 260.75,-174.5 260.75,-174.5 260.75,-191.5 260.75,-191.5 260.75,-197.5 254.75,-203.5 248.75,-203.5"/>
<text xml:space="preserve" text-anchor="middle" x="224.25" y="-186.2" font-family="Times,serif" font-size="14.00">dep_target</text>
<text xml:space="preserve" text-anchor="middle" x="224.25" y="-169.7" font-family="Times,serif" font-size="14.00">Strings: 0</text>
</g>
<!-- sample_more -->
<g id="node2" class="node">
<title>sample_more</title>
<path fill="lightgreen" stroke="black" d="M78.25,-119.5C78.25,-119.5 12,-119.5 12,-119.5 6,-119.5 0,-113.5 0,-107.5 0,-107.5 0,-90.5 0,-90.5 0,-84.5 6,-78.5 12,-78.5 12,-78.5 78.25,-78.5 78.25,-78.5 84.25,-78.5 90.25,-84.5 90.25,-90.5 90.25,-90.5 90.25,-107.5 90.25,-107.5 90.25,-113.5 84.25,-119.5 78.25,-119.5"/>
<text xml:space="preserve" text-anchor="middle" x="45.12" y="-102.2" font-family="Times,serif" font-size="14.00">sample_more</text>
<text xml:space="preserve" text-anchor="middle" x="45.12" y="-85.7" font-family="Times,serif" font-size="14.00">Strings: 3</text>
</g>
<!-- sample_more&#45;&gt;dep_target -->
<g id="edge1" class="edge">
<title>sample_more&#45;&gt;dep_target</title>
<path fill="none" stroke="blue" d="M76.75,-119.82C86.58,-126.07 97.67,-132.67 108.25,-138 130.1,-149.01 155.32,-159.14 176.56,-167"/>
<polygon fill="blue" stroke="blue" points="175.25,-170.25 185.85,-170.37 177.64,-163.67 175.25,-170.25"/>
<text xml:space="preserve" text-anchor="middle" x="139" y="-166.58" font-family="Times,serif" font-size="14.00">depends on</text>
</g>
<!-- $a -->
<g id="node3" class="node">
<title>$a</title>
<ellipse fill="lightyellow" stroke="black" cx="224.25" cy="-126" rx="27" ry="18"/>
<text xml:space="preserve" text-anchor="middle" x="224.25" y="-120.95" font-family="Times,serif" font-size="14.00">$a</text>
</g>
<!-- sample_more&#45;&gt;$a -->
<g id="edge2" class="edge">
<title>sample_more&#45;&gt;$a</title>
<path fill="none" stroke="black" d="M90.36,-105.74C119.95,-110.25 158.43,-116.12 186.36,-120.38"/>
<polygon fill="black" stroke="black" points="185.72,-123.82 196.14,-121.87 186.78,-116.9 185.72,-123.82"/>
<text xml:space="preserve" text-anchor="middle" x="139" y="-120.47" font-family="Times,serif" font-size="14.00">uses</text>
</g>
<!-- $b -->
<g id="node4" class="node">
<title>$b</title>
<ellipse fill="lightyellow" stroke="black" cx="224.25" cy="-72" rx="27" ry="18"/>
<text xml:space="preserve" text-anchor="middle" x="224.25" y="-66.95" font-family="Times,serif" font-size="14.00">$b</text>
</g>
<!-- sample_more&#45;&gt;$b -->
<g id="edge3" class="edge">
<title>sample_more&#45;&gt;$b</title>
<path fill="none" stroke="black" d="M90.56,-91.35C96.5,-90.37 102.52,-89.39 108.25,-88.5 134.38,-84.42 163.92,-80.19 186.52,-77.03"/>
<polygon fill="black" stroke="black" points="186.72,-80.54 196.15,-75.7 185.76,-73.6 186.72,-80.54"/>
<text xml:space="preserve" text-anchor="middle" x="139" y="-91.7" font-family="Times,serif" font-size="14.00">uses</text>
</g>
<!-- $c -->
<g id="node5" class="node">
<title>$c</title>
<ellipse fill="lightyellow" stroke="black" cx="224.25" cy="-18" rx="27" ry="18"/>
<text xml:space="preserve" text-anchor="middle" x="224.25" y="-12.95" font-family="Times,serif" font-size="14.00">$c</text>
</g>
<!-- sample_more&#45;&gt;$c -->
<g id="edge4" class="edge">
<title>sample_more&#45;&gt;$c</title>
<path fill="none" stroke="black" d="M76,-78.13C85.99,-71.67 97.35,-64.85 108.25,-59.5 134.28,-46.72 165.29,-35.76 188.54,-28.32"/>
<polygon fill="black" stroke="black" points="189.34,-31.74 197.83,-25.41 187.25,-25.06 189.34,-31.74"/>
<text xml:space="preserve" text-anchor="middle" x="139" y="-62.7" font-family="Times,serif" font-size="14.00">uses</text>
</g>
</g>
</svg>
