<svg xmlns="http://www.w3.org/2000/svg" width="1200" height="720" viewBox="0 0 1200 720">
  <rect width="1200" height="720" fill="#f6f2e9"/>
  <rect x="40" y="40" width="1120" height="640" rx="20" fill="#fffdf8" stroke="#1f3a2e" stroke-width="4"/>
  <text x="80" y="100" font-family="Georgia, serif" font-size="34" fill="#1f3a2e">YARAAST Runtime Dashboard</text>
  <g font-family="Menlo, monospace">
    <rect x="80" y="140" width="220" height="110" rx="12" fill="#d8eadf"/>
    <text x="100" y="175" font-size="18" fill="#1f3a2e">Open documents</text>
    <text x="100" y="225" font-size="40" fill="#1f3a2e">12</text>
    <rect x="320" y="140" width="220" height="110" rx="12" fill="#e6dfc9"/>
    <text x="340" y="175" font-size="18" fill="#4a4130">Workspace symbols</text>
    <text x="340" y="225" font-size="40" fill="#4a4130">184</text>
    <rect x="560" y="140" width="220" height="110" rx="12" fill="#f0d8c8"/>
    <text x="580" y="175" font-size="18" fill="#6a3a2a">Dirty documents</text>
    <text x="580" y="225" font-size="40" fill="#6a3a2a">3</text>
  </g>
  <rect x="80" y="290" width="500" height="320" rx="14" fill="#f9f7f0" stroke="#cabf9e"/>
  <text x="100" y="330" font-family="Georgia, serif" font-size="24" fill="#1f3a2e">Latency</text>
  <g font-family="Menlo, monospace" font-size="18" fill="#2a2a2a">
    <text x="100" y="380">hover              1.2ms   max 4.1   count 240</text>
    <text x="100" y="420">definition         1.9ms   max 5.6   count 180</text>
    <text x="100" y="460">references         3.7ms   max 9.8   count 90</text>
    <text x="100" y="500">document_symbols   2.4ms   max 6.0   count 54</text>
    <text x="100" y="540">workspace_symbols  6.8ms   max 14.1  count 18</text>
  </g>
  <rect x="620" y="290" width="500" height="320" rx="14" fill="#f9f7f0" stroke="#cabf9e"/>
  <text x="640" y="330" font-family="Georgia, serif" font-size="24" fill="#1f3a2e">Cache Summary</text>
  <g font-family="Menlo, monospace" font-size="18" fill="#2a2a2a">
    <text x="640" y="380">workspace_generation         18</text>
    <text x="640" y="420">workspace_symbol_queries     44</text>
    <text x="640" y="460">rule_definition_entries      22</text>
    <text x="640" y="500">rule_reference_entries       15</text>
    <text x="640" y="540">document_analysis_entries    37</text>
  </g>
</svg>
